<?xml version="1.0" encoding="UTF-8"?>
<svg id="scream" xmlns="http://www.w3.org/2000/svg" viewBox="0 0 305 486.5">
  <g>
    <path d="m81.2,480.95c-15.25,0-25.28-3.36-30.67-10.28-4.47-5.75-5.46-13.71-2.94-23.66,7.08-27.97-5.68-45.44-19.2-63.93-11.01-15.06-22.39-30.64-22.39-52.06,0-22.98,3.92-45.29,11.64-66.32,2.64-7.18,5.74-14.23,9.23-20.96,7.78-15.02,10.43-31.96,7.46-47.7-2.21-11.75-3.33-23.86-3.33-36.02,0-37.16,16.83-75.97,50.04-115.35,24.35-28.88,34.54-30.13,83.48-36.12,7.32-.9,13.3-1.49,18.7-1.49,12.58,0,21.78,3.25,35.14,12.42,36.75,25.23,79.66,77.18,79.66,140.54,0,26.26-5.33,52.34-15.42,75.42-8.79,19.16-4.22,47.28.21,74.48,3.32,20.38,6.45,39.62,4.17,55.18-3.09,21.09-17.97,32.23-31.1,42.06-14.08,10.54-26.23,19.63-23.89,38.88,1.17,9.56-.3,16.5-4.47,21.21-5.57,6.29-14.9,7.02-21.43,7.02h0c-6.27,0-13.38-.76-20.9-1.56-8.64-.92-17.58-1.88-26.58-1.88-6.66,0-12.48.53-17.78,1.61-18.54,3.79-41.62,8.51-59.6,8.51Z" style="fill: #3a8dbd;"/>
    <path d="m183.21,11.05c11.49,0,19.95,2.85,32.87,11.72,39.35,27.02,77.92,78.36,77.92,137.24,0,26.68-5.46,51.8-15.09,73.82-15.91,34.68,9.33,94.87,4.09,130.68-6,41-60,41-55,82,2.35,19.26-7.05,23.75-21.94,23.75-13.03,0-30.25-3.44-47.48-3.44-6.26,0-12.52.45-18.58,1.69-19.71,4.03-41.58,8.43-58.8,8.43-21.22,0-35.37-6.68-29.73-28.97,13.53-53.47-41.47-71.54-41.47-116.97,0-23.02,4.06-44.96,11.4-64.94,2.61-7.09,5.62-13.94,9.02-20.5,8.02-15.49,11.07-33.14,7.84-50.28-2.13-11.34-3.26-23.15-3.26-35.28,0-44.21,24.98-84.16,49.09-112.77,23.34-27.68,31.91-28.73,80.91-34.73,7.16-.88,13-1.46,18.21-1.46m0-8c-5.6,0-11.72.61-19.18,1.52-24.89,3.05-39.92,4.89-52.07,9.75-13.33,5.33-22.55,14.22-33.97,27.77-14.62,17.34-26.28,34.9-34.67,52.2-10.82,22.31-16.3,44.42-16.3,65.73,0,12.4,1.14,24.77,3.4,36.76,2.8,14.87.28,30.9-7.08,45.12-3.56,6.87-6.73,14.08-9.43,21.42-7.89,21.48-11.89,44.25-11.89,67.7s11.77,38.84,23.16,54.42c13.5,18.48,25.17,34.44,18.55,60.59-2.84,11.21-1.6,20.33,3.67,27.1,6.19,7.96,17.26,11.83,33.82,11.83,18.39,0,41.68-4.77,60.4-8.59,5.04-1.03,10.59-1.53,16.98-1.53,8.79,0,17.61.94,26.15,1.85,7.63.82,14.84,1.59,21.33,1.59,7.31,0,17.79-.87,24.43-8.37,4.98-5.62,6.76-13.59,5.45-24.35-1.97-16.16,6.74-23.54,22.31-35.19,13.75-10.29,29.34-21.96,32.66-44.68,2.37-16.17-.81-35.71-4.18-56.4-4.33-26.6-8.8-54.11-.55-72.1.02-.04.04-.09.06-.13,10.31-23.58,15.76-50.22,15.76-77.02,0-28.56-8.78-57.88-25.4-84.77-14.26-23.08-34.15-44.06-55.99-59.06-13.93-9.57-24.07-13.13-37.4-13.13h0Z" style="fill: #333;"/>
  </g>
  <path d="m240.87,291.49c-1.24-29.3-10.54-44.7-13.7-52.64-2.38-5.99-5.95-13.62-10.08-19.81-2.43-7.7-3.65-8.63-3.62-12.97.04-6.89,3.14-10.86,7.38-18.87,3.41-6.43,8.31-15.68,10.54-25.82,3.05-13.83-.07-23.83-3.16-33.77-1.21-3.88-2.98-8.35-7.38-10.93-3.39-1.98-1.9-2.99-3.54-2.99h0c0-7.67-2.22-19.23-4.87-23.92-2.82-4.97-12.21-10.66-7.82-16,.59-.71.08-1.75-.87-1.72-1.18.04-2.36.06-3.28.29h0c.22-1.89-1.82-3.36-3.67-2.67-.1.04-.2.07-.3.1-1.29.42-2.7-.33-2.99-1.6-.2-.9.58-2.68-.47-2.68s-1.18,2.93-.88,4.62c-5.3-.53-11.62-3.65-16.92-3.43-9.52.39-18.99,1.74-28.11,3.91-12.84,3.06-27.76,16.1-26.34,42.63-1.76.07-3.73.43-5.61,1.44-1.97,1.06-4,2.91-6.32,7.95-2.32,5.01-3.75,10.6-4.22,18.87-.44,7.78-.75,13.17,1.05,19.86,2.14,7.96,4.61,7.89,10.54,19.86,2.16,4.36,4.3,8.7,5.92,13.5-7.67,1.54-15.1,4.41-21.22,10.07-7.58,7.01-14.75,16.78-16.33,35.03-.59,6.76-1.92,19.98-1.05,35.76,1.05,19-16.78,35.25-11.6,59.59,1.74,8.2,3.17,15.34,9.49,20.86,4.33,3.79-2.64,10.43-2.64,25.33,0,10.23-3.16,54.63,1.05,74.49,4.37,20.59,33.73.99,64.3.99,33.04,0,35.48,5.17,41.38,1,4.22-2.98-8.54-25.81-8.43-32.78.43-27.49,18.45-65.06,21.61-65.06,0,0,11.6,6.95,16.87,5.96,9.36-1.76,14.36-18.34,16.34-25.33,4.22-14.9,10.01-24.33,8.96-49.17Z" style="fill: #333;"/>
  <path d="m240,289.52c-1.18-29.5-10-45-13-53-2.26-6.03-5.64-13.71-9.56-19.94-2.31-7.75-3.46-8.69-3.44-13.06.04-6.94,2.97-10.93,7-19,3.23-6.48,7.88-15.79,10-26,2.89-13.92-.06-23.99-3-34-1.15-3.91-2.82-8.41-7-11-3.15-1.95-6.4-2-8-2-19.07-.03-28.6-.04-29,0-13.04,1.4-43.15,2.9-58,0-1.6-.31-6.03-1.26-10,1-1.87,1.07-3.79,2.93-6,8-2.2,5.04-3.55,10.67-4,19-.42,7.83-.71,13.26,1,20,2.03,8.01,4.38,7.95,10,20,2.05,4.39,4.08,8.75,5.62,13.59-7.28,1.55-14.32,4.44-20.13,10.14-7.2,7.05-13.99,16.9-15.49,35.27-.56,6.81-1.83,20.12-1,36,.99,19.13-15.92,35.49-11,60,1.66,8.25,3.01,15.44,9,21,4.11,3.81-2.5,10.5-2.5,25.5,0,10.3-3,55,1,75,4.15,20.73,32,1,61,1,31.35,0,38.4,4.2,44,0,4-3-8.1-25.99-8-33,.41-27.68,17.5-65.5,20.5-65.5,0,0,11,7,16,6,8.88-1.78,13.62-18.47,15.5-25.5,4-15,9.5-24.5,8.5-49.5Z" style="fill: #333;"/>
  <path d="m218,236.52c0,3.59-.91,7-4.5,7s-4.86-3.31-6.5-6.5c-1.74-3.4-2.86-6.38-3.51-9-1.48-5.98-6.49-13.5-5.49-16.5.69-2.06.38-12.6,3.5-23.5,4-14,17.16-34.98,16-50-1-13,0-20,2-20,8.15,0,8,24,8.5,28.5.64,5.8-3,22-6,27-2.06,3.43-12,26-12.01,31.6s5.39,15.05,6.39,20.04,1.63,9.82,1.63,11.36Z" style="fill: #fff;"/>
  <path d="m121.5,123.02c0,1.55-2.4,10.76-2.16,18.68.16,5.32,4.16,19.32,6.16,22.32.87,1.3,6.96,9.92,8,12,.31.62,8,13,10,19s-3.55,36.92-4,42c-.45,5.06-7.39,22.12-13,16-2.35-4.23,3-42,2-50-.62-4.92-2-12-5-16-1.2-1.61-4-8-5-10-1.12-2.24-4.49-9.52-6-12s-2.69-9.74-3-11c-1-4-1-12.08-1-14,0-5,1.34-11.01,2-13,.87-2.62,5.57-9,7.5-9s3.5,2.24,3.5,5Z" style="fill: #fff;"/>
  <path d="m186.5,225.02c-5.38,11.83-9.82,23-17,23-5.08,0-7.27-5.25-9.68-12.22-1-2.88-2.03-6.06-3.32-9.28-2.5-6.25-7-16.5-3-16.5,0,0,6-1,18,0,4.92.41,17-2,18-2,1.26,0,.13,10.12-3,17Z" style="fill: #90c73e;"/>
  <path d="m157.99,41.87c.59-.04,3.76-.14,4.78-.1,6.85.77,18.89,3.72,26.37,5.88-.42-3.83-7.79-6.2-11.5-7.47-18.36-6.44-37.67.13-51.82,8.58-4.55,4.75,16.69-3.47,18.04-4.01,4.66-1.63,9-2.55,14.12-2.87Z" style="fill: #333;"/>
  <path d="m121.97,77.71c-5.66,3.9-9.61,10.71-13.42,16.49-.44.76-.17,1.26.28,1.77,2.29,1.41,3.96-2.4,5.13-3.85,2.69-4.49,7.86-9.18,8.01-14.41Z" style="fill: #333;"/>
  <path d="m111.8,68.51c-7.21,1.74-12.96,9.62-17.84,15.15-9.37,10.96-14.38,24.56-14.83,39.08-.89,9.56-.05-.29,4.29,27.96,1.79,11.66-1.02,23.56-2.07,35.17,8.6-10.04,6.52-25.02,6.66-37.42.02-9.13-4.81-17.49-3.52-26.7,0,0,0,0,0,0,.58-16.05,6.51-32.09,18.3-43.02,2.68-2.85,9.29-5.95,9-10.21Z" style="fill: #333;"/>
  <path d="m275.74,129.1c-1.68-12.03-6.77-24.58-13.36-36.82.04-.3-.09-.52-.33-.69-.4-1.05-.87-2.06-1.6-2.93-2.53-4.84-6.28-9.27-10.3-13.06-.04.04-.08.09-.12.13,1.85,3.91,3.69,7.82,5.54,11.73,0,0,0,0,0,0,9.11,17.16,18.64,36.77,13.53,56.67-2.77,11.26-10.88,20.07-14.77,30.82-3.25,12.12-5.21,26.99,1.3,38.28,3.42-12.63,1.35-26.19,6.72-38.39,6.69-14.45,17.2-28.93,13.4-45.74Z" style="fill: #333;"/>
  <path d="m201.42,56.43c19.58,11.84,28.43,33.92,35.76,54.27,3.75-5.65-3.29-21.99-6.04-28.11-6.87-14.08-15.38-25.97-31.87-28.56.65.99,1.37,1.73,2.15,2.4Z" style="fill: #333;"/>
  <path d="m258.29,127.1c.6-1.5-4.58-14.28-5.1-9.75,1.02,10.78.71,22.36-4.45,32.16-16.12,24.73-22.58,61.27-2.88,85.79,3.31,3.57,2.18-2.1,1.77-4.04-13.45-37.35-9.6-51,8.19-85.25.02-.01.04-.03.06-.04-.02-.03-.05-.07-.07-.1.33-.41.42-.89.49-1.39,1.84-5.48,2.59-11.56,2-17.39Z" style="fill: #333;"/>
  <path d="m239.03,82.73c-.07-.07-.14-.15-.21-.22.14-.08.26-.08.33.09-.04.04-.08.09-.12.13Z" style="fill: #333;"/>
  <path d="m96.34,118.51c.37-1.31-.4.28.68-2.73,1.91-4.49,3.37-9.21,7.14-12.53-3.13,10.67-5.77,21.62-6.23,32.78-.71,2.62,1.86,16.07-.55,15.84-6.68-9.84-2.37-23.19-1.03-33.37Z" style="fill: #333;"/>
  <path d="m71.86,248.9c-2.76-23.33,9.91-43.26,22.11-60.93-7.11-.02-16.17,15.14-19.49,20.92-7.29,13.75-11.7,27.68-3.23,43.19.41-1.11.56-2.14.61-3.18Z" style="fill: #333;"/>
  <path d="m68.98,270.9c.5-1.24-5.24-11.14-5.49-7.48,1.58,8.58,1.91,17.89-2.58,26.08-14.34,20.89-18.65,50.63,1.87,68.99,3.41,2.64,2.01-1.83,1.5-3.36-15.13-29.06-12.12-40.26,3.33-68.9.02-.01.04-.02.05-.04-.03-.03-.05-.05-.08-.08.29-.35.36-.74.4-1.15,1.5-4.52,1.89-9.44,1-14.08Z" style="fill: #333;"/>
  <path d="m96.14,162.17c.69,6.84,4.76,13.57,7.99,19.7.45.75,1.02.76,1.69.61,2.34-1.33-.19-4.62-.9-6.35-2.64-4.52-4.26-11.31-8.77-13.96Z" style="fill: #333;"/>
  <path d="m222.8,244.86c-.42.12-.72.38-.92.72-2.82,1.59-5.36,3.71-8.38,4.92-2.49,1-5.65,1.27-8-.23-1.42-.9-2.12-2.39-2.64-3.94-.6-1.8-1.12-3.64-1.64-5.46-1.05-3.71-1.97-7.45-2.77-11.21-.92-4.35-1.68-8.74-2.28-13.15-.07-.49-.9-.75-.98-.13,0,.04,0,.09-.02.13,0,0,0,0,0,0,0,0,0,0,0,0-1.31,9.93.38,19.91,3.04,29.48.68,2.46,1.42,4.9,2.21,7.32.3.93.68,1.84,1.6,2.3.88.45,1.94.41,2.91.45,3.92.16,8.03.18,11.79-1.1,1.99-.67,3.87-1.74,5.34-3.26.8-.83,1.32-1.79,1.05-2.96-.11-.48-.72-1.69-.54-2.41.19-.11.38-.22.58-.32.22-.11.28-.3.24-.48.12-.34-.13-.8-.58-.68Z" style="fill: #fff;"/>
  <path d="m112.63,208.17c5.02,17.66,3.46,34.65-2.65,51.63.11-.59.2-.96.24-1.35.17-1.7.39-3.4.48-5.1.13-2.55.19-5.1.24-7.65.01-.59-.08-1.19-.24-1.76-.47-1.71-1.95-2.44-3.51-1.6-2.4,1.29-4.24,3.24-4.97,5.87-1.19,4.26-2.16,8.59-3.14,12.91-1.25,5.52-2.4,11.05-3.61,16.58-.08.37-.26.71-.54,1.02.13-2.73.21-5.46.4-8.19.16-2.3.4-4.59.72-6.87.44-3.14.92-6.28,1.49-9.39.84-4.59,1.52-9.24,2.72-13.74,2.57-9.63,5.74-19.07,10.36-27.95.69-1.33,1.25-2.73,2.02-4.41Z" style="fill: #fff;"/>
  <path d="m203.98,270.51c0-1.24,1.64-1.49,1.79-.28.85,6.77,1.55,13.57,1.54,20.41,0,3.37-.23,7.27-1.61,10.53-.42.99-1.71.77-1.71-.29l-.02-30.37Z" style="fill: #fff;"/>
  <path d="m137.72,223.69c1.59-15.55-2.34-29.98-8.51-44.09,1.98,1.9,4.23,3.59,5.88,5.74,2.21,2.86,2.98,6.43,3.66,9.95.96,4.96,1.22,9.98.89,14.99-.28,4.3-1.08,8.56-1.66,12.84-.02.18-.17.35-.28.57Z"/>
  <path d="m103.51,340.52c-1.38,3.48-3.81,6.15-6.39,8.73-2.17,2.17-4.3,4.37-6.44,6.57-.3.31-.55.67-.9,1.12.87.24,1.62.49,2.38.62.34.06.81-.05,1.07-.27,5.33-4.43,8.59-10.14,10.29-16.77Z" style="fill: #fff;"/>
  <path d="m148.22,225.41c1.13-.76,1.82-.48,2.18.46.75,1.99,1.56,3.98,2.1,6.04,1.49,5.65,3.61,11.06,5.99,16.37,1.25,2.78,2.82,5.41,4.25,8.11.31.58.6,1.17.7,1.86-6.8-10.16-11.46-21.31-15.22-32.84Z" style="fill: #fff;"/>
  <path d="m148.27,251.68c-1.49-.3-4.74,1.43-5.01,3.35-.39,2.78-1.1,5.53-1.36,8.32-.43,4.54-1.48,8.94-3.05,13.17-4.05,10.95-8.31,21.83-13.78,32.18-1.24,2.35-2.47,4.7-3.92,6.98.04-.22.04-.46.13-.67,3.6-8.75,6.11-17.85,8.66-26.94,2.35-8.36,4.71-16.71,7.11-25.05,1.29-4.49,2.61-8.97,4.04-13.42.42-1.3,1.15-2.54,1.9-3.7,1.31-2.03,3.06-1.89,4.23.25.94,1.72,1.3,3.56,1.05,5.52Z" style="fill: #fff;"/>
  <path d="m220.62,129.37c1.77,1.08,1.91,2.85,1.56,4.63-1.25,6.31-2.68,12.65-4.23,19-.56,2.3-1.3,4.71-3.7,6.89-.24.22-.48.44-1.06.96,5.64-11.13,4.68-22.34,7.42-31.48Z"/>
  <path d="m215.99,180.62c-1.85.58-2.83,1.95-3.43,3.4-2.14,5.15-4.17,10.34-6.11,15.57-.7,1.89-1.32,3.9-.59,5.98.07.21.15.42.32.92,1.21-9.6,5.05-17.9,9.81-25.86Z"/>
  <path d="m29.02,326.16c1.68,12.03,6.77,24.58,13.36,36.82-.04.3.09.52.33.69.4,1.05.87,2.06,1.6,2.93,2.53,4.84,6.28,9.27,10.3,13.06.04-.04.08-.09.12-.13-1.85-3.91-3.69-7.82-5.54-11.73,0,0,0,0,0,0-9.11-17.16-18.64-36.77-13.53-56.67,2.77-11.26,10.88-20.07,14.77-30.82,3.25-12.12,5.21-26.99-1.3-38.28-3.42,12.63-1.35,26.19-6.72,38.39-6.69,14.45-17.2,28.93-13.4,45.74Z" style="fill: #333;"/>
  <path d="m230.05,376.7c17.39-15.79,20.92-39.14,23.31-60.49,5.38,4.65,2.26,22.04.97,28.58-3.53,15.16-22.46,42.72-29.91,35.71.86.81,4.98-2.98,5.63-3.8Z" style="fill: #333;"/>
  <path d="m210.74,376.03c1.13.25-10.75,16.8-15.12,32.37-3.92,13.94-.24,27.11-1.74,27.11-3,0-8.97-15-4.3-25.43,6.43-14.37,8.3-19.57,14.3-31.57-.53,1.06-4.45-5.02,6.86-2.48Z" style="fill: #333;"/>
  <path d="m109.04,438.52c-3.01-22.01,6.09-41.35,13.78-61-4.19,20.35-14.24,39.5-12.78,61h-1Z" style="fill: #fff;"/>
  <path d="m159.28,276.8c.58,3.04,1.45,6.05,1.7,9.11,1.85,23.1-1.92,45.25-10.88,66.65-7.66,18.29-14.92,36.75-22.06,55.26-2.08,5.4-3.13,11.2-5.68,16.87.32-4.6-.37-9.57,1.17-13.72,4.37-11.84,9.19-23.57,14.67-34.94,7.64-15.87,14.49-31.91,17.89-49.3,2.98-15.26,3.97-30.56,1.99-46.01-.16-1.23.12-2.52.19-3.78.34-.05.67-.09,1.01-.14Z" style="fill: #fff;"/>
  <path d="m103.54,396.23c-1.92,11.4-3.83,22.8-5.75,34.2-1.88-11.94.83-23.25,4.53-34.43.41.08.81.15,1.22.23Z" style="fill: #fff;"/>
  <path d="m253.27,295.18c-.3.9.95,2.15,3.49,5.44,2.24,2.9-1.4-12.98,1.27-18.92,8.59-15.12,10.88-36.67-2.03-50.05-2.14-1.93-1.22,1.32-.88,2.43,5.25,11.41,4.93,19.01,4.36,26.89-.47,6.54-1.32,13.55-5.54,23.09-.01,0-.02.02-.03.03.02.02.03.04.05.05-.18.25-.21.54-.23.83-.87,3.27-1.05,6.84-.44,10.21Z" style="fill: #333;"/>
  <path d="m168.29,349.8c-7.66,18.29-14.92,36.75-22.06,55.26-2.08,5.4-6.05,7.3-4.52,3.15,4.37-11.84,9.19-23.57,14.67-34.94,7.64-15.87,14.49-31.91,17.89-49.3,2.98-15.26,2.97,4.43-5.99,25.83Z" style="fill: #fff;"/>
  <g style="opacity: 0;">
    <path d="m149.62,191.33l2.7,10.33c.68,2.61,1.36,5.23,2.36,7.74,2.02,5.09,5.18,9.59,10.58,11.39,5,1.66,11.16,1.34,16.03-.6s9.36-6.04,9.92-11.6c.19-1.86-.3-3.72-.4-5.57s-.04-3.86.16-5.78c.39-3.81,1.3-7.56,2.18-11.28.3-1.28-.39-2.75-1.75-3.08-3.53-.85-6.21,1.33-8.51,3.73-2.15,2.24-4.36,3.9-7.39,4.76-7.12,2.03-14.47-.4-21.25-2.58-3.07-.98-4.39,3.84-1.33,4.82,7.23,2.32,14.75,4.52,22.38,2.95,3.31-.68,6.43-2.13,9.01-4.32,1.14-.96,2.08-2.12,3.16-3.15.74-.7,1.73-1.6,2.6-1.39l-1.75-3.08c-1.46,6.15-2.95,12.51-2.49,18.88.1,1.4.41,2.8.42,4.21,0,1.18-.43,2.27-1.02,3.28-.96,1.63-2.41,2.86-4.06,3.77-3.68,2.03-8.41,2.5-12.51,1.73-2.28-.43-4.25-1.29-5.87-2.97-1.4-1.44-2.4-3.27-3.17-5.12-1.06-2.52-1.74-5.2-2.43-7.84l-2.77-10.57c-.81-3.11-5.64-1.79-4.82,1.33h0Z" style="fill: #333;"/>
  </g>
  <path d="m188.33,191.28c.51-.47,1.49-.04,1.96.47.71.77.15,1.81-.29,2.77-1.35,2.92-.35,6.81,0,10,.23,2.12,0,4-.68,5.92-1.52,4.26-3.57,8.49-7.71,10.37-4.14,1.89-8.9,1.98-13.41,1.39-3.81-.5-7.8-1.6-10.31-4.49-5.04-5.78-5.38-13.69-6.88-22.19,0,0,25,7,37.33-4.23Z" style="fill: #fff;"/>
  <g>
    <path d="m125.73,147.42c1.53,8.17,15.1,49.09,42.74,49.1,19.43,0,40.28-20.24,42.76-49.19.51-6.88,1.01-13.76,1.52-20.63,0-.03,0-.06,0-.08-.04-1.21-.08-2.42-.14-3.65l1.39.12v-1.26c0-.39-.28-.72-.67-.79l-.85-.15c-.03-.4-.04-.61-.05-.72,0,.02-.03-.12-.11-.83.29.44.59.87.88,1.32,1.25-6.63-1.2-22.81-4.29-28.6-2.75-5.14-12.06-11.03-7.06-16.53.47-.52.05-1.36-.66-1.33-.93.04-1.88.05-2.71.15-.48.06-.89-.29-.91-.78-.03-.79-.15-1.63-.21-2.46-.05-.66-.85-.96-1.33-.52-1.15,1.05-2.48,1.56-3.94,1.71-.37.04-.71-.21-.83-.56-.43-1.33-1.84-1.9-1.73-.47.04.53-.42.95-.94.86-4.79-.81-10.31-3.51-14.98-3.31-9.03.39-18.02,1.75-26.67,3.94-13.15,3.33-28.61,18.35-24.38,49.55.06.43.44.74.87.7h0c.49-.04.9.35.87.84-.05.88-.1,1.99-.13,3.26,0,0-.26,10.68,1.55,20.31Zm-2.09-26.44l1.06-2.3c-.07.72-.12,1.43-.18,2.15l-.88.15Z" style="fill: #fff;"/>
    <path d="m212.43,120.16s-.01-.22,0,0h0Z" style="fill: #fff;"/>
  </g>
  <path d="m170,162.52c5.59,0,11.28,8.74,9.76,14.72-1.5,5.94-4.53,11.37-10.12,11.37s-7.52-5.67-10.12-11.37c-2.49-5.45,4.89-14.72,10.48-14.72Z" style="fill: #333;"/>
  <path d="m162.47,130.02c0,2.72-2.2,4.92-4.91,4.92s-4.92-2.2-4.92-4.92,2.2-4.91,4.92-4.91,4.91,2.2,4.91,4.91Z" style="fill: #333;"/>
  <path d="m186.72,130.02c0,2.72-2.2,4.92-4.91,4.92s-4.92-2.2-4.92-4.92,2.2-4.91,4.92-4.91,4.91,2.2,4.91,4.91Z" style="fill: #333;"/>
  <path d="m170.13,191.05c-.13,0-.26,0-.4,0-3.38-.15-5.58-2.11-5.67-2.19-.16-.15-.14-.37.04-.49.18-.13.46-.11.62.04.02.02,2.06,1.26,5.06,1.39,1.99.08,3.78-.12,5.9-1.42.19-.12.46-.12.62.02.17.14.16.36-.02.49-1.99,1.44-4.06,2.17-6.17,2.17Z" style="fill: #333;"/>
  <path d="m169.68,148.98c-5.86,0-8.37-2.79-8.48-2.91-.24-.28-.22-.7.06-.95.28-.24.7-.22.94.06.02.02,2.26,2.45,7.47,2.45s7.66-2.91,7.68-2.93c.23-.29.65-.33.94-.1.29.23.33.65.1.94-.11.14-2.84,3.44-8.72,3.44Z" style="fill: #333;"/>
  <path d="m165.5,138.82c-.08,0-.16-.03-.22-.08-.15-.12-.17-.35-.05-.5.06-.07,1.5-1.82,4.62-1.82s4.46,1.48,4.51,1.55c.13.15.12.37-.03.5-.15.13-.37.12-.5-.03,0-.01-1.2-1.3-3.97-1.3s-4.02,1.49-4.07,1.56c-.07.08-.17.13-.28.13Z" style="fill: #333;"/>
  <path d="m124.85,147.69c5.37,24.94,23.08,51.29,44.05,51.29s38.73-26.4,44.08-51.38c.52-7.06,1.05-14.12,1.57-21.18-.04-1.25-.08-2.51-.14-3.78l1.43.12v-1.98l-1.57-.27c-.13-1.96.07.38-.16-1.59.3.45.61.9.91,1.35,1.29-6.79-1.24-23.36-4.42-29.29-3.14-5.85-14.65-12.65-4.99-18.8-1.91.79-4.84.33-6.73.83.18-1.82-.52-3.97-.09-5.83-1.58,2.57-3.73,3.52-6.19,3.61-.46-1.56-1.19-3.17-1.38-4.74-.7.83-.75,2.92-.46,4.67-5.18-.55-11.36-3.76-16.54-3.54-9.31.4-18.57,1.79-27.49,4.03-13.66,3.44-29.75,19.04-25.01,51.54l2.08-4.51c-.07.73-.13,1.47-.19,2.2l-1.9.32v1.98l1.74-.15c-.09,1.43-.15,2.85-.19,4.28m13.94-35.63c1.13-.72,2.35-1.28,3.69-1.61,1.96-.49,4.08-.77,6.29-.93-2.71.33-4.71.87-7.34,4.74,3.69.03,8.08.04,11.67-.99,2.68-.78,5.47-2.22,8.18-3.67,3.85.2,7.64.45,11.08.45-8.74,1.02-16.16,4.09-23.8,7.85,14.3,2.13,36.55-5.29,46.6-15.29.29.19.57.39.85.59,2.96,9.65,8.4,17.07,14.01,24.74.81,3.84,1.38,8.07,1.74,12.68l-2.08-.35c0-.12.01-.2.01-.2,0,0,.42-2.96-3.06-2.96h-29.47c-2.96,0-1.95,3.64-1.95,3.64,0,0-2.78-.47-4.73-.47s-4.68.42-4.68.42c0,0,.81-3.58-1.96-3.58-2.2,0-21.95.04-30.01.04-2.69,0-2.5,3.07-2.5,3.07l-1.99.34c1.16-12.25,4.23-21.65,9.46-28.5Zm67.82,28.76c-.22,4.48-1.1,18.8-3.52,18.8h-20.17c-3,0-4.33-14.32-4.67-18.8-.06-.83.52-1.32,1.21-1.32h25.87c.7,0,1.31.49,1.27,1.32Zm-43.81-.2c-.19,4.24-1.01,19-3.53,19h-22.55c-2.07,0-2.56-13.81-2.67-18.55-.02-.98.67-1.57,1.66-1.57h25.87c.75,0,1.24.42,1.21,1.13Zm7.7,76.15c-23,0-41.71-33.72-41.71-64.1,0-3.37.11-6.57.32-9.6l2.21-.19c.07,5.81.57,19.13,3.77,19.13h24.6c3.58,0,5.68-16.76,5.68-16.76.69-1.07,2.85-1.03,5.14-1.03s5.18.11,5.33,1.08c0,0,1.75,16.72,5.48,16.72h23.4c2.88,0,4.29-13.21,4.78-19.12l2.45.21c.18,3.03.27,6.22.27,9.57,0,30.38-18.71,64.1-41.71,64.1Z" style="fill: #333;"/>
  <path d="m170.04,153.68c-2.28-.02-4.7-1.7-7.1-1.77-4.73-.14-8.27,2.25-11.56,4.87-3.81,3.02-5.69,6.08-5.74,10.9-.15,13.55-.63,37.84,24.9,37.84,1.38,0,2.67-.12,3.9-.11,18.57.11,19.02-19.26,19.44-37.73.03-1.17-.44-10.53-8.91-13.89-2.71-1.08-5.53-1.92-8.96-1.8-1.96.07-3.97,1.7-5.96,1.69Zm16.19,16.69c-1.15,7.01.26,20.11-5.9,22.94-2.26,1.04-5.54-2.01-10.35-2.01-5.14,0-8.73,3.05-11.26,1.97-6.37-2.71-6.08-19.07-6.95-26.53-.15-1.27,2.32-5.29,6.3-7.05,3.11-1.38,7.14,1.05,11.57,1.05s8.5-2.63,11.55-.99c3.58,1.92,5.69,6.66,5.04,10.62Z" style="fill: #333;"/>
  <path d="m170,182.37l.34-4.39c2.72.47,7.66,2.53,5.66,4.39-1.81,1.68-2.71,3.5-6,3.5s-4.19-1.82-6-3.5c-2-1.86,2.95-3.92,5.67-4.39l.33,4.39Z" style="fill: #d43f3f;"/>
  <path d="m149.34,110.82c.21-.03.42-.05.63-.06,5.36-.36,9.3,3.13,9.47,3.28.29.26.31.7.05.99-.26.29-.7.31-.99.05-.04-.03-3.55-2.13-8.31-1.8-3.16.22-5.91.97-8.94,3.97-.28.27-.69.33-.99.08-.3-.25-.33-.7-.08-.99,2.77-3.27,5.85-5.13,9.17-5.53Z" style="fill: #333;"/>
  <path d="m192.67,111.08c.21.02.42.05.62.08,5.3.85,8.36,5.15,8.49,5.33.22.32.15.76-.17.98-.32.22-.76.15-.98-.17-.03-.04-2.98-2.87-7.69-3.62-3.13-.5-5.98-.39-9.61,1.86-.33.2-.75.17-.98-.14-.23-.31-.17-.75.14-.98,3.43-2.56,6.86-3.68,10.18-3.33Z" style="fill: #333;"/>
</svg>